# This file uses centimeters as units for non-parametric coordinates.

mtllib Seafood Shell.mtl
g default
v 0.626647 -0.259883 1.393897
v 0.626647 0.214044 1.443961
v -0.593761 -0.259883 1.393897
v -0.593761 0.214044 1.443961
v 1.255535 -0.469637 -0.873462
v 1.255535 0.512091 -0.769755
v -1.272518 -0.469638 -0.873462
v -1.272518 0.512091 -0.769755
v -0.780409 0.329537 1.044441
v -0.780409 -0.289351 0.979064
v 0.813295 -0.289351 0.979064
v 0.813295 0.329537 1.044441
v -0.962005 0.402837 0.599960
v -0.962005 -0.352789 0.520138
v 0.983809 -0.352790 0.520138
v 0.983809 0.402837 0.599960
v -0.797163 -0.318507 1.192782
v -0.797163 0.313395 1.259534
v 0.830049 -0.318507 1.192782
v 0.830049 0.313395 1.259534
v 0.016443 -0.313297 1.402487
v 0.760365 -0.024407 1.433005
v 0.016443 0.264484 1.463522
v -0.727479 -0.024407 1.433005
v -0.762321 -0.317695 1.314612
v -0.795068 0.325602 1.136188
v -1.079228 0.020093 1.011753
v 0.016443 -0.405393 0.966806
v 0.016443 0.445580 1.056700
v 1.112114 0.020093 1.011753
v 0.827954 -0.304673 1.069607
v 0.795207 0.287145 1.378506
v -1.326845 0.025023 0.560049
v 0.010902 -0.494470 0.505172
v 0.010902 0.544516 0.614927
v 1.348649 0.025024 0.560049
v -0.777977 0.332339 0.955680
v -0.777977 -0.284123 0.890558
v 0.809478 -0.284123 0.890558
v 0.809478 0.332339 0.955680
v -1.626167 0.021358 -0.955986
v -0.010313 -0.606133 -1.022273
v -0.010313 0.648848 -0.889700
v 1.605541 0.021358 -0.955986
v -1.333495 0.543707 -0.176362
v -1.333495 -0.492115 -0.285783
v 1.333853 -0.492115 -0.285783
v 1.333853 0.543708 -0.176361
v -0.795068 -0.304673 1.069607
v -0.762321 0.287145 1.378505
v 0.795207 -0.317695 1.314612
v 0.827954 0.325602 1.136188
v 0.016443 0.431877 1.272050
v 0.016443 -0.436989 1.180266
v 1.135151 -0.002556 1.226158
v -1.102265 -0.002556 1.226158
v 0.016443 -0.027527 1.462543
v -1.099386 0.010465 1.102898
v 1.088067 -0.015421 1.347946
v 0.016443 -0.422849 1.057124
v 0.016443 0.400727 1.391907
v -1.075625 0.024108 0.923119
v 0.015751 -0.399710 0.878348
v 0.015751 0.447926 0.967890
v 1.107126 0.024108 0.923119
v -1.851509 0.025809 -0.244320
v 0.000000 -0.693194 -0.320273
v 0.000000 0.744813 -0.168367
v 1.851509 0.025809 -0.244320
v 0.016443 0.443779 1.148672
v 0.016443 -0.431570 1.303985
v 1.132272 0.010465 1.102898
v -1.055181 -0.015421 1.347946
v -1.143271 0.471574 0.221159
v -1.143271 -0.420772 0.126895
v 1.154611 -0.420772 0.126895
v 1.154611 0.471574 0.221159
v -1.582852 0.025407 0.167562
v 0.005582 -0.591436 0.102400
v 0.005582 0.642250 0.232723
v 1.594016 0.025407 0.167562
v -0.754568 0.344648 -1.183469
v -0.963124 0.055250 -1.293294
v -0.754568 -0.234302 -1.244627
v 0.736289 -0.234302 -1.244627
v -0.010214 -0.314797 -1.332384
v -0.010214 0.425298 -1.254203
v 0.736289 0.344648 -1.183469
v 0.942697 0.055250 -1.293293
v -0.012468 0.055413 -1.459598
vt 0.375000 0.000000
vt 0.500000 0.000000
vt 0.500000 0.123262
vt 0.375000 0.125000
vt 0.625000 0.000000
vt 0.625000 0.125000
vt 0.625000 0.250000
vt 0.500000 0.232624
vt 0.375000 0.250000
vt 0.375000 0.374892
vt 0.500000 0.374922
vt 0.500000 0.435926
vt 0.375000 0.437446
vt 0.625000 0.374892
vt 0.625000 0.437446
vt 0.625000 0.500000
vt 0.500000 0.486398
vt 0.375000 0.500000
vt 0.500000 0.562970
vt 0.551183 0.573817
vt 0.448817 0.676183
vt 0.437970 0.625000
vt 0.562030 0.625000
vt 0.551183 0.676183
vt 0.500000 0.687030
vt 0.375000 0.875108
vt 0.500000 0.875078
vt 0.500000 0.937551
vt 0.375000 0.937554
vt 0.625000 0.875108
vt 0.625000 0.937554
vt 0.625000 1.000000
vt 0.500000 1.000000
vt 0.375000 1.000000
vt 0.249892 0.500000
vt 0.312446 0.500000
vt 0.310926 0.625000
vt 0.249922 0.625000
vt 0.361398 0.625000
vt 0.375000 0.750000
vt 0.312446 0.750000
vt 0.249892 0.750000
vt 0.750108 0.500000
vt 0.812554 0.500000
vt 0.812551 0.625000
vt 0.750078 0.625000
vt 0.875000 0.500000
vt 0.875000 0.625000
vt 0.875000 0.750000
vt 0.812554 0.750000
vt 0.750108 0.750000
vt 0.573555 0.551445
vt 0.500000 0.523862
vt 0.500000 0.514147
vt 0.582103 0.542897
vt 0.426445 0.551445
vt 0.417897 0.542897
vt 0.398862 0.625000
vt 0.389147 0.625000
vt 0.426445 0.698555
vt 0.417897 0.707103
vt 0.573555 0.698555
vt 0.601138 0.625000
vt 0.610853 0.625000
vt 0.582103 0.707103
vt 0.638602 0.625000
vt 0.625000 0.750000
vt 0.500000 0.726138
vt 0.500000 0.735853
vt 0.500000 0.763602
vt 0.500000 0.532989
vt 0.566924 0.558076
vt 0.448817 0.573817
vt 0.433076 0.558076
vt 0.500000 0.528315
vt 0.429680 0.554680
vt 0.570320 0.554680
vt 0.407989 0.625000
vt 0.433076 0.691924
vt 0.403315 0.625000
vt 0.429680 0.695320
vt 0.592011 0.625000
vt 0.566924 0.691924
vt 0.596685 0.625000
vt 0.570320 0.695320
vt 0.500000 0.717011
vt 0.500000 0.721685
vt 0.687554 0.500000
vt 0.689074 0.625000
vt 0.687554 0.750000
vt 0.125000 0.500000
vt 0.187446 0.500000
vt 0.187449 0.625000
vt 0.125000 0.625000
vt 0.187446 0.750000
vt 0.125000 0.750000
vt 0.500000 0.814074
vt 0.375000 0.812554
vt 0.625000 0.812554
vt 0.500000 0.310712
vt 0.375000 0.312446
vt 0.625000 0.312446
vt 0.500000 0.625000
vt 0.551183 0.573817
vt 0.500000 0.562970
vt 0.437970 0.625000
vt 0.448817 0.676183
vt 0.562030 0.625000
vt 0.551183 0.573817
vt 0.500000 0.687030
vt 0.551183 0.676183
vt 0.448817 0.573817
vt 0.500000 0.562970
vt 0.437970 0.625000
vt 0.500000 0.562970
vt 0.551183 0.573817
vt 0.562030 0.625000
vt 0.562030 0.625000
vt 0.551183 0.676183
vt 0.500000 0.687030
vt 0.437970 0.625000
vt 0.500000 0.687030
vt 0.448817 0.676183
vt 0.448817 0.676183
vt 0.500000 0.687030
vt 0.551183 0.676183
vt 0.562030 0.625000
vt 0.448817 0.573817
vt 0.437970 0.625000
vt 0.500000 0.562970
vt 0.448817 0.573817
vn 0.035798 -0.195632 0.980024
vn 0.035798 -0.195632 0.980024
vn 0.035798 -0.195632 0.980024
vn 0.035798 -0.195632 0.980024
vn 0.035798 -0.013454 0.999268
vn 0.035798 -0.013454 0.999268
vn 0.035798 -0.013454 0.999268
vn 0.035798 -0.013454 0.999268
vn -0.035798 -0.013454 0.999268
vn -0.035798 -0.013454 0.999268
vn -0.035798 -0.013454 0.999268
vn -0.035798 -0.013454 0.999268
vn -0.035798 -0.195632 0.980024
vn -0.035798 -0.195632 0.980024
vn -0.035798 -0.195632 0.980024
vn -0.035798 -0.195632 0.980024
vn -0.721162 -0.686966 -0.089462
vn -0.721162 -0.686966 -0.089462
vn -0.721162 -0.686966 -0.089462
vn -0.721162 -0.686966 -0.089462
vn -0.721162 0.690496 0.056049
vn -0.721162 0.690496 0.056049
vn -0.721162 0.690496 0.056049
vn -0.721162 0.690496 0.056049
vn -0.712378 0.696755 -0.083964
vn -0.712378 0.696755 -0.083964
vn -0.712378 0.696755 -0.083964
vn -0.712378 0.696755 -0.083964
vn -0.712378 -0.663833 -0.227692
vn -0.712378 -0.663833 -0.227692
vn -0.712378 -0.663833 -0.227692
vn -0.712378 -0.663833 -0.227692
vn -0.397713 0.561920 -0.725307
vn -0.397713 0.561920 -0.725307
vn -0.397713 0.561920 -0.725307
vn -0.397713 0.561920 -0.725307
vn 0.157095 -0.719828 -0.676142
vn 0.157095 -0.719828 -0.676142
vn 0.157095 -0.719828 -0.676142
vn 0.157095 -0.719828 -0.676142
vn -0.140605 0.843976 -0.517624
vn -0.140605 0.843976 -0.517624
vn -0.140605 0.843976 -0.517624
vn -0.140605 0.843976 -0.517624
vn 0.398382 0.559804 -0.726575
vn 0.398382 0.559804 -0.726575
vn 0.398382 0.559804 -0.726575
vn 0.398382 0.559804 -0.726575
vn 0.693602 -0.692335 0.198970
vn 0.693602 -0.692335 0.198970
vn 0.693602 -0.692335 0.198970
vn 0.693602 -0.692335 0.198970
vn 0.693602 0.635480 0.339237
vn 0.693602 0.635480 0.339237
vn 0.693602 0.635480 0.339237
vn 0.693602 0.635480 0.339237
vn 0.266703 0.137042 0.953986
vn 0.266703 0.137042 0.953986
vn 0.266703 0.137042 0.953986
vn 0.266703 0.137042 0.953986
vn 0.266703 -0.333346 0.904296
vn 0.266703 -0.333346 0.904296
vn 0.266703 -0.333346 0.904296
vn 0.266703 -0.333346 0.904296
vn -0.144901 -0.982985 -0.112890
vn -0.144901 -0.982985 -0.112890
vn -0.144901 -0.982985 -0.112890
vn -0.144901 -0.982985 -0.112890
vn -0.144398 -0.971535 -0.187800
vn -0.144398 -0.971535 -0.187800
vn -0.144398 -0.971535 -0.187800
vn -0.144398 -0.971535 -0.187800
vn 0.144398 -0.971535 -0.187800
vn 0.144398 -0.971535 -0.187800
vn 0.144398 -0.971535 -0.187800
vn 0.144398 -0.971535 -0.187800
vn 0.144901 -0.982985 -0.112890
vn 0.144901 -0.982985 -0.112890
vn 0.144901 -0.982985 -0.112890
vn 0.144901 -0.982985 -0.112890
vn -0.143606 0.957260 0.251058
vn -0.143606 0.957260 0.251058
vn -0.143606 0.957260 0.251058
vn -0.143606 0.957260 0.251058
vn -0.079599 0.500394 0.862131
vn -0.079599 0.500394 0.862131
vn -0.079599 0.500394 0.862131
vn -0.079599 0.500394 0.862131
vn 0.079599 0.500394 0.862131
vn 0.079599 0.500394 0.862131
vn 0.079599 0.500394 0.862131
vn 0.079599 0.500394 0.862131
vn 0.143606 0.957260 0.251058
vn 0.143606 0.957260 0.251058
vn 0.143606 0.957260 0.251058
vn 0.143606 0.957260 0.251058
vn -0.662527 0.591177 0.459966
vn -0.662527 0.591177 0.459966
vn -0.662527 0.591177 0.459966
vn -0.662527 0.591177 0.459966
vn -0.625789 -0.649895 0.431305
vn -0.625789 -0.649895 0.431305
vn -0.625789 -0.649895 0.431305
vn -0.625789 -0.649895 0.431305
vn -0.721209 -0.690068 -0.060528
vn -0.721209 -0.690068 -0.060528
vn -0.721209 -0.690068 -0.060528
vn -0.721209 -0.690068 -0.060528
vn -0.719487 0.694502 0.002172
vn -0.719487 0.694502 0.002172
vn -0.719487 0.694502 0.002172
vn -0.719487 0.694502 0.002172
vn -0.136301 -0.960152 0.243987
vn -0.137003 -0.959706 0.245346
vn -0.136000 -0.959802 0.245528
vn -0.136000 -0.959802 0.245528
vn 0.136198 -0.960640 0.242118
vn 0.136198 -0.960640 0.242118
vn 0.136198 -0.960640 0.242118
vn 0.136198 -0.960640 0.242118
vn 0.144796 -0.987352 -0.064582
vn 0.144796 -0.987352 -0.064582
vn 0.144796 -0.987352 -0.064582
vn 0.144796 -0.987352 -0.064582
vn -0.144797 -0.987499 -0.062285
vn -0.144797 -0.987499 -0.062285
vn -0.144797 -0.987499 -0.062285
vn -0.144797 -0.987499 -0.062285
vn 0.143097 0.955118 0.259370
vn 0.143097 0.955118 0.259370
vn 0.143097 0.955118 0.259370
vn 0.143097 0.955118 0.259370
vn -0.142996 0.954117 0.263084
vn -0.142996 0.954117 0.263084
vn -0.142996 0.954117 0.263084
vn -0.142996 0.954117 0.263084
vn -0.144503 0.989129 0.027260
vn -0.144503 0.989129 0.027260
vn -0.145200 0.989032 0.027050
vn -0.144402 0.989246 0.023250
vn 0.144394 0.989203 0.025060
vn 0.144394 0.989203 0.025060
vn 0.144403 0.989271 0.022146
vn 0.144294 0.989223 0.024861
vn 0.631025 -0.653461 0.418085
vn 0.631025 -0.653461 0.418085
vn 0.631025 -0.653461 0.418085
vn 0.631025 -0.653461 0.418085
vn 0.667102 0.597226 0.445305
vn 0.667102 0.597226 0.445305
vn 0.667102 0.597226 0.445305
vn 0.667102 0.597226 0.445305
vn 0.718838 0.695121 -0.008930
vn 0.718838 0.695121 -0.008930
vn 0.718838 0.695121 -0.008930
vn 0.718838 0.695121 -0.008930
vn 0.721261 -0.688935 -0.071771
vn 0.721261 -0.688935 -0.071771
vn 0.721261 -0.688935 -0.071771
vn 0.721261 -0.688935 -0.071771
vn -0.722193 0.668680 -0.176930
vn -0.722193 0.668680 -0.176930
vn -0.722193 0.668680 -0.176930
vn -0.722193 0.668680 -0.176930
vn -0.741895 -0.647967 -0.172424
vn -0.741895 -0.647967 -0.172424
vn -0.741895 -0.647967 -0.172424
vn -0.741895 -0.647967 -0.172424
vn -0.632481 -0.657960 0.408727
vn -0.631596 -0.659127 0.408213
vn -0.632776 -0.657657 0.408756
vn -0.632776 -0.657657 0.408756
vn -0.666627 0.607162 0.432391
vn -0.668634 0.604368 0.433206
vn -0.668979 0.603899 0.433327
vn -0.668979 0.603899 0.433327
vn -0.134598 -0.986889 -0.089068
vn -0.134598 -0.986889 -0.089068
vn -0.134598 -0.986889 -0.089068
vn -0.134598 -0.986889 -0.089068
vn 0.134703 -0.986507 -0.093050
vn 0.134703 -0.986507 -0.093050
vn 0.134703 -0.986507 -0.093050
vn 0.134703 -0.986507 -0.093050
vn 0.138295 -0.963692 0.228413
vn 0.137804 -0.963758 0.228429
vn 0.137600 -0.963816 0.228311
vn 0.137600 -0.963816 0.228311
vn -0.137608 -0.962947 0.231942
vn -0.138098 -0.962881 0.231926
vn -0.137003 -0.959706 0.245346
vn -0.136301 -0.960152 0.243987
vn 0.132601 0.985642 -0.104536
vn 0.132601 0.985642 -0.104536
vn 0.132601 0.985642 -0.104536
vn 0.132601 0.985642 -0.104536
vn -0.132697 0.986021 -0.100769
vn -0.132697 0.986021 -0.100769
vn -0.132697 0.986021 -0.100769
vn -0.132697 0.986021 -0.100769
vn -0.144808 0.958605 0.245169
vn -0.144195 0.958723 0.245067
vn -0.144195 0.958723 0.245067
vn -0.144195 0.958723 0.245067
vn 0.144395 0.959613 0.241441
vn 0.144899 0.959538 0.241437
vn 0.144299 0.959650 0.241348
vn 0.144299 0.959650 0.241348
vn 0.739910 -0.644230 -0.193651
vn 0.739910 -0.644230 -0.193651
vn 0.739910 -0.644230 -0.193651
vn 0.739910 -0.644230 -0.193651
vn 0.718213 0.667388 -0.196884
vn 0.718213 0.667388 -0.196884
vn 0.718213 0.667388 -0.196884
vn 0.718213 0.667388 -0.196884
vn 0.673016 0.610298 0.417834
vn 0.670996 0.613080 0.417011
vn 0.673407 0.609771 0.417974
vn 0.673407 0.609771 0.417974
vn 0.635597 -0.664210 0.393498
vn 0.637712 -0.661526 0.394597
vn 0.637919 -0.661245 0.394733
vn 0.637919 -0.661245 0.394733
vn -0.145200 0.989032 0.027050
vn -0.144398 0.989331 0.019340
vn -0.144398 0.989331 0.019340
vn -0.144402 0.989246 0.023250
vn -0.144901 0.984876 0.094989
vn -0.144901 0.984876 0.094989
vn -0.144901 0.984876 0.094989
vn -0.144901 0.984876 0.094989
vn 0.144901 0.984876 0.094989
vn 0.144901 0.984876 0.094989
vn 0.144901 0.984876 0.094989
vn 0.144901 0.984876 0.094989
vn 0.144403 0.989271 0.022146
vn 0.144398 0.989331 0.019340
vn 0.144398 0.989331 0.019340
vn 0.144294 0.989223 0.024861
vn -0.079599 -0.669485 0.738548
vn -0.079599 -0.669485 0.738548
vn -0.079599 -0.669485 0.738548
vn -0.079599 -0.669485 0.738548
vn -0.143606 -0.988588 0.045504
vn -0.143606 -0.988588 0.045504
vn -0.143606 -0.988588 0.045504
vn -0.143606 -0.988588 0.045504
vn 0.143606 -0.988588 0.045504
vn 0.143606 -0.988588 0.045504
vn 0.143606 -0.988588 0.045504
vn 0.143606 -0.988588 0.045504
vn 0.079599 -0.669485 0.738548
vn 0.079599 -0.669485 0.738548
vn 0.079599 -0.669485 0.738548
vn 0.079599 -0.669485 0.738548
vn 0.712378 -0.663833 -0.227692
vn 0.712378 -0.663833 -0.227692
vn 0.712378 -0.663833 -0.227692
vn 0.712378 -0.663833 -0.227692
vn 0.712378 0.696755 -0.083964
vn 0.712378 0.696755 -0.083964
vn 0.712378 0.696755 -0.083964
vn 0.712378 0.696755 -0.083964
vn 0.721162 0.690496 0.056049
vn 0.721162 0.690496 0.056049
vn 0.721162 0.690496 0.056049
vn 0.721162 0.690496 0.056049
vn 0.721162 -0.686966 -0.089462
vn 0.721162 -0.686966 -0.089462
vn 0.721162 -0.686966 -0.089462
vn 0.721162 -0.686966 -0.089462
vn -0.266703 -0.333346 0.904296
vn -0.266703 -0.333346 0.904296
vn -0.266703 -0.333346 0.904296
vn -0.266703 -0.333346 0.904296
vn -0.266703 0.137042 0.953986
vn -0.266703 0.137042 0.953986
vn -0.266703 0.137042 0.953986
vn -0.266703 0.137042 0.953986
vn -0.693602 0.635480 0.339237
vn -0.693602 0.635480 0.339237
vn -0.693602 0.635480 0.339237
vn -0.693602 0.635480 0.339237
vn -0.693602 -0.692335 0.198970
vn -0.693602 -0.692335 0.198970
vn -0.693602 -0.692335 0.198970
vn -0.693602 -0.692335 0.198970
vn 0.635380 -0.664313 0.393676
vn 0.635380 -0.664313 0.393676
vn 0.637712 -0.661526 0.394597
vn 0.635597 -0.664210 0.393498
vn 0.670777 0.613372 0.416932
vn 0.670777 0.613372 0.416932
vn 0.670996 0.613080 0.417011
vn 0.673016 0.610298 0.417834
vn 0.145596 0.959411 0.241521
vn 0.145596 0.959411 0.241521
vn 0.144899 0.959538 0.241437
vn 0.144395 0.959613 0.241441
vn -0.145504 0.958453 0.245349
vn -0.145504 0.958453 0.245349
vn -0.144195 0.958723 0.245067
vn -0.144808 0.958605 0.245169
vn -0.138695 -0.962770 0.232031
vn -0.138695 -0.962770 0.232031
vn -0.138098 -0.962881 0.231926
vn -0.137608 -0.962947 0.231942
vn 0.138806 -0.963585 0.228553
vn 0.138806 -0.963585 0.228553
vn 0.137804 -0.963758 0.228429
vn 0.138295 -0.963692 0.228413
vn -0.666411 0.607456 0.432313
vn -0.666411 0.607456 0.432313
vn -0.668634 0.604368 0.433206
vn -0.666627 0.607162 0.432391
vn -0.630276 -0.660754 0.407623
vn -0.630276 -0.660754 0.407623
vn -0.631596 -0.659127 0.408213
vn -0.632481 -0.657960 0.408727
vn -0.155297 -0.300494 -0.941056
vn -0.155297 -0.300494 -0.941056
vn -0.155297 -0.300494 -0.941056
vn -0.155297 -0.300494 -0.941056
vn -0.144302 0.463990 -0.874008
vn -0.144302 0.463990 -0.874008
vn -0.144302 0.463990 -0.874008
vn -0.144302 0.463990 -0.874008
vn 0.143802 0.462761 -0.874742
vn 0.143802 0.462761 -0.874742
vn 0.143802 0.462761 -0.874742
vn 0.143802 0.462761 -0.874742
vn 0.154691 -0.298908 -0.941661
vn 0.154691 -0.298908 -0.941661
vn 0.154691 -0.298908 -0.941661
vn 0.154691 -0.298908 -0.941661
vn 0.394697 -0.418800 -0.817815
vn 0.394697 -0.418800 -0.817815
vn 0.394697 -0.418800 -0.817815
vn 0.394697 -0.418800 -0.817815
vn 0.140202 0.844057 -0.517602
vn 0.140202 0.844057 -0.517602
vn 0.140202 0.844057 -0.517602
vn 0.140202 0.844057 -0.517602
vn -0.157510 -0.719697 -0.676185
vn -0.157510 -0.719697 -0.676185
vn -0.157510 -0.719697 -0.676185
vn -0.157510 -0.719697 -0.676185
vn -0.394087 -0.421092 -0.816931
vn -0.394087 -0.421092 -0.816931
vn -0.394087 -0.421092 -0.816931
vn -0.394087 -0.421092 -0.816931
s off
g Seafood_Shell:Mesh
usemtl aiStandardSurface16SG
f 1/1/1 22/2/2 57/3/3 21/4/4
f 22/2/5 2/5/6 23/6/7 57/3/8
f 57/3/9 23/6/10 4/7/11 24/8/12
f 21/4/13 57/3/14 24/8/15 3/9/16
f 17/10/17 56/11/18 58/12/19 49/13/20
f 56/11/21 18/14/22 26/15/23 58/12/24
f 58/12/25 26/15/26 9/16/27 27/17/28
f 49/13/29 58/12/30 27/17/31 10/18/32
f 41/19/33 8/20/34 82/104/35 83/105/36
f 5/21/37 42/22/38 86/106/39 85/107/40
f 8/20/41 43/23/42 87/108/43 82/109/44
f 6/24/45 44/25/46 89/110/47 88/111/48
f 19/26/49 55/27/50 59/28/51 51/29/52
f 55/27/53 20/30/54 32/31/55 59/28/56
f 59/28/57 32/31/58 2/32/59 22/33/60
f 51/29/61 59/28/62 22/33/63 1/34/64
f 17/35/65 49/36/66 60/37/67 54/38/68
f 49/36/69 10/18/70 28/39/71 60/37/72
f 60/37/73 28/39/74 11/40/75 31/41/76
f 54/38/77 60/37/78 31/41/79 19/42/80
f 18/43/81 50/44/82 61/45/83 53/46/84
f 50/44/85 4/47/86 23/48/87 61/45/88
f 61/45/89 23/48/90 2/49/91 32/50/92
f 53/46/93 61/45/94 32/50/95 20/51/96
f 13/52/97 33/53/98 62/54/99 37/55/100
f 33/53/101 14/56/102 38/57/103 62/54/104
f 62/54/105 38/57/106 10/18/107 27/17/108
f 37/55/109 62/54/110 27/17/111 9/16/112
f 14/56/113 34/58/114 63/59/115 38/57/116
f 34/58/117 15/60/118 39/61/119 63/59/120
f 63/59/121 39/61/122 11/40/123 28/39/124
f 38/57/125 63/59/126 28/39/127 10/18/128
f 16/62/129 35/63/130 64/64/131 40/65/132
f 35/63/133 13/52/134 37/55/135 64/64/136
f 64/64/137 37/55/138 9/16/139 29/66/140
f 40/65/141 64/64/142 29/66/143 12/67/144
f 15/60/145 36/68/146 65/69/147 39/61/148
f 36/68/149 16/62/150 40/65/151 65/69/152
f 65/69/153 40/65/154 12/67/155 30/70/156
f 39/61/157 65/69/158 30/70/159 11/40/160
f 8/20/161 41/19/162 66/71/163 45/72/164
f 41/19/165 7/73/166 46/74/167 66/71/168
f 78/75/169 75/76/170 14/56/171 33/53/172
f 74/77/173 78/75/174 33/53/175 13/52/176
f 7/73/177 42/22/178 67/78/179 46/74/180
f 42/22/181 5/21/182 47/79/183 67/78/184
f 79/80/185 76/81/186 15/60/187 34/58/188
f 75/76/189 79/80/190 34/58/191 14/56/192
f 6/24/193 43/23/194 68/82/195 48/83/196
f 43/23/197 8/20/198 45/72/199 68/82/200
f 80/84/201 74/77/202 13/52/203 35/63/204
f 77/85/205 80/84/206 35/63/207 16/62/208
f 5/21/209 44/25/210 69/86/211 47/79/212
f 44/25/213 6/24/214 48/83/215 69/86/216
f 81/87/217 77/85/218 16/62/219 36/68/220
f 76/81/221 81/87/222 36/68/223 15/60/224
f 9/16/225 26/88/226 70/89/227 29/66/228
f 26/88/229 18/43/230 53/46/231 70/89/232
f 70/89/233 53/46/234 20/51/235 52/90/236
f 29/66/237 70/89/238 52/90/239 12/67/240
f 3/91/241 25/92/242 71/93/243 21/94/244
f 25/92/245 17/35/246 54/38/247 71/93/248
f 71/93/249 54/38/250 19/42/251 51/95/252
f 21/94/253 71/93/254 51/95/255 1/96/256
f 11/40/257 30/70/258 72/97/259 31/98/260
f 30/70/261 12/67/262 52/99/263 72/97/264
f 72/97/265 52/99/266 20/30/267 55/27/268
f 31/98/269 72/97/270 55/27/271 19/26/272
f 3/9/273 24/8/274 73/100/275 25/101/276
f 24/8/277 4/7/278 50/102/279 73/100/280
f 73/100/281 50/102/282 18/14/283 56/11/284
f 25/101/285 73/100/286 56/11/287 17/10/288
f 47/79/289 69/86/290 81/87/291 76/81/292
f 69/86/293 48/83/294 77/85/295 81/87/296
f 48/83/297 68/82/298 80/84/299 77/85/300
f 68/82/301 45/72/302 74/77/303 80/84/304
f 46/74/305 67/78/306 79/80/307 75/76/308
f 67/78/309 47/79/310 76/81/311 79/80/312
f 45/72/313 66/71/314 78/75/315 74/77/316
f 66/71/317 46/74/318 75/76/319 78/75/320
f 84/112/321 83/113/322 90/103/323 86/114/324
f 83/115/325 82/116/326 87/117/327 90/103/328
f 90/103/329 87/118/330 88/119/331 89/120/332
f 86/121/333 90/103/334 89/122/335 85/123/336
f 44/25/337 5/21/338 85/124/339 89/125/340
f 43/23/341 6/24/342 88/126/343 87/127/344
f 42/22/345 7/73/346 84/128/347 86/129/348
f 7/73/349 41/19/350 83/130/351 84/131/352
